<svg width="800" height="400" xmlns="http://www.w3.org/2000/svg" role="img" aria-label="Classroom noise levels guide cover">
  <rect width="800" height="400" fill="#eef2ff"/>

  <rect x="70" y="92" width="420" height="220" rx="18" fill="#0f172a"/>
  <rect x="96" y="118" width="368" height="168" rx="14" fill="#111827"/>
  <path d="M120 160h140" stroke="#22c55e" stroke-width="10" stroke-linecap="round"/>
  <path d="M120 198h220" stroke="#f59e0b" stroke-width="10" stroke-linecap="round"/>
  <path d="M120 236h300" stroke="#ef4444" stroke-width="10" stroke-linecap="round"/>
  <text x="280" y="274" font-family="Arial, sans-serif" font-size="14" fill="#93c5fd" font-weight="bold" text-anchor="middle">Speech clarity drops as noise rises</text>

  <rect x="520" y="120" width="210" height="190" rx="18" fill="#ffffff" stroke="#e5e7eb" stroke-width="2"/>
  <circle cx="625" cy="190" r="62" fill="#f8fafc" stroke="#e5e7eb" stroke-width="2"/>
  <path d="M625 190l44-24" stroke="#ef4444" stroke-width="6" stroke-linecap="round"/>
  <circle cx="625" cy="190" r="6" fill="#ef4444"/>
  <text x="625" y="246" font-family="Arial, sans-serif" font-size="14" fill="#0f172a" font-weight="bold" text-anchor="middle">dB meter</text>

  <path d="M552 292c16 12 30 18 44 18 14 0 28-6 44-18" fill="none" stroke="#6366f1" stroke-width="6" stroke-linecap="round"/>
  <path d="M590 286c8 10 18 16 30 16 12 0 22-6 30-16" fill="none" stroke="#a5b4fc" stroke-width="6" stroke-linecap="round"/>

  <text x="400" y="70" font-family="Arial, sans-serif" font-size="22" fill="#1e3a8a" font-weight="bold" text-anchor="middle">Classroom Noise Levels</text>
  <text x="400" y="360" font-family="Arial, sans-serif" font-size="18" fill="#4f46e5" font-weight="bold" text-anchor="middle">What’s normal • when it hurts learning • how to measure</text>
</svg>
