<svg xmlns="http://www.w3.org/2000/svg" width="800" height="400" viewBox="0 0 800 400" role="img" aria-label="Dear Passengers co-op flight crew and mic level guide">
  <defs>
    <linearGradient id="sky" x1="0" y1="0" x2="0" y2="1">
      <stop offset="0%" stop-color="#dbeafe"/>
      <stop offset="100%" stop-color="#eff6ff"/>
    </linearGradient>
  </defs>
  <rect width="800" height="400" fill="url(#sky)"/>
  <ellipse cx="160" cy="120" rx="70" ry="48" fill="#93c5fd" opacity="0.35"/>
  <ellipse cx="640" cy="110" rx="55" ry="40" fill="#93c5fd" opacity="0.3"/>
  <g transform="translate(120,175)">
    <ellipse cx="280" cy="40" rx="220" ry="38" fill="#1e40af"/>
    <path d="M60 40 L-20 10 L-10 40 L-20 70 Z" fill="#1e3a8a"/>
    <path d="M420 20 L520 -10 L500 40 L520 90 L420 60 Z" fill="#2563eb"/>
    <rect x="200" y="-10" width="18" height="30" rx="4" fill="#3b82f6"/>
    <circle cx="180" cy="40" r="8" fill="#bfdbfe"/>
    <circle cx="230" cy="40" r="8" fill="#bfdbfe"/>
    <circle cx="280" cy="40" r="8" fill="#bfdbfe"/>
    <circle cx="330" cy="40" r="8" fill="#bfdbfe"/>
  </g>
  <g transform="translate(530,210)">
    <rect x="0" y="0" width="180" height="120" rx="14" fill="#ffffff" stroke="#93c5fd" stroke-width="3"/>
    <text x="90" y="28" text-anchor="middle" font-family="Arial, Helvetica, sans-serif" font-size="13" font-weight="700" fill="#1e40af">Cabin scream test</text>
    <rect x="24" y="44" width="16" height="48" rx="3" fill="#86efac"/>
    <rect x="48" y="36" width="16" height="56" rx="3" fill="#4ade80"/>
    <rect x="72" y="28" width="16" height="64" rx="3" fill="#facc15"/>
    <rect x="96" y="20" width="16" height="72" rx="3" fill="#fb923c"/>
    <rect x="120" y="12" width="16" height="80" rx="3" fill="#ef4444"/>
    <text x="90" y="110" text-anchor="middle" font-family="Arial, Helvetica, sans-serif" font-size="12" fill="#64748b">dB peak meter</text>
  </g>
  <text x="400" y="370" font-family="Arial, Helvetica, sans-serif" font-size="22" font-weight="700" text-anchor="middle" fill="#1e3a8a">Dear Passengers - Co-op voice survival</text>
</svg>
