<svg xmlns="http://www.w3.org/2000/svg" viewBox="0 0 800 600">
  <defs>
    <linearGradient id="bg" x1="0%" y1="0%" x2="100%" y2="100%">
      <stop offset="0%" style="stop-color:#f3f4f6;stop-opacity:1" />
      <stop offset="100%" style="stop-color:#e5e7eb;stop-opacity:1" />
    </linearGradient>
  </defs>
  <rect width="800" height="600" fill="url(#bg)"/>
  
  <!-- Musical Note / Ear Concept -->
  <g transform="translate(400, 300) scale(1.5)">
    <path d="M-60,-80 C-100,-80 -120,-40 -120,0 C-120,60 -80,100 -40,120 L-40,200 L-20,200 L-20,130 C20,140 60,120 80,80 C100,40 100,-20 60,-60 C20,-100 -20,-80 -60,-80 Z" fill="#3b82f6" opacity="0.1"/>
    <path d="M-40,-60 C-70,-60 -90,-30 -90,0 C-90,50 -50,80 -20,90 L-20,180 L-10,180 L-10,100 C30,110 60,90 70,50 C80,10 80,-30 40,-50 C10,-70 -10,-60 -40,-60 Z" fill="none" stroke="#3b82f6" stroke-width="4" stroke-linecap="round" stroke-linejoin="round"/>
    
    <!-- Sound Waves -->
    <path d="M80,-40 Q110,0 80,40" fill="none" stroke="#ef4444" stroke-width="4" stroke-linecap="round" stroke-opacity="0.6"/>
    <path d="M100,-60 Q150,0 100,60" fill="none" stroke="#ef4444" stroke-width="4" stroke-linecap="round" stroke-opacity="0.4"/>
    <path d="M120,-80 Q190,0 120,80" fill="none" stroke="#ef4444" stroke-width="4" stroke-linecap="round" stroke-opacity="0.2"/>
  </g>
</svg>