<svg width="800" height="400" xmlns="http://www.w3.org/2000/svg">
  <rect width="800" height="400" fill="#f8fafc"/>

  <rect x="140" y="70" width="220" height="300" rx="26" fill="#0f172a" opacity="0.9"/>
  <rect x="158" y="98" width="184" height="238" rx="14" fill="#ffffff"/>
  <circle cx="250" cy="86" r="6" fill="#334155"/>
  <rect x="220" y="340" width="60" height="12" rx="6" fill="#334155"/>

  <text x="250" y="165" font-family="Arial, sans-serif" font-size="34" text-anchor="middle" fill="#1d4ed8" font-weight="bold">82</text>
  <text x="250" y="190" font-family="Arial, sans-serif" font-size="14" text-anchor="middle" fill="#64748b">dBA (ref)</text>

  <rect x="190" y="220" width="120" height="12" rx="6" fill="#e2e8f0"/>
  <rect x="190" y="220" width="74" height="12" rx="6" fill="#3b82f6"/>
  <circle cx="264" cy="226" r="10" fill="#1d4ed8"/>

  <circle cx="560" cy="170" r="120" fill="#f59e0b" opacity="0.16"/>
  <circle cx="610" cy="140" r="10" fill="#f59e0b"/>
  <circle cx="645" cy="165" r="8" fill="#f59e0b"/>
  <circle cx="625" cy="200" r="6" fill="#f59e0b"/>

  <text x="560" y="155" font-family="Arial, sans-serif" font-size="44" text-anchor="middle" fill="#b45309" font-weight="bold">Calibrate</text>
  <text x="560" y="190" font-family="Arial, sans-serif" font-size="16" text-anchor="middle" fill="#64748b">Reference-only workflow</text>

  <path d="M410 260 C450 230, 520 230, 560 260" fill="none" stroke="#334155" stroke-width="6" stroke-linecap="round"/>
  <path d="M550 250 L572 260 L550 270" fill="none" stroke="#334155" stroke-width="6" stroke-linecap="round" stroke-linejoin="round"/>

  <text x="400" y="360" font-family="Arial, sans-serif" font-size="24" text-anchor="middle" fill="#334155">Phone Decibel Meter Calibration Guide</text>
</svg>
