<svg width="800" height="400" xmlns="http://www.w3.org/2000/svg" role="img" aria-label="Smartphone decibel accuracy guide cover">
  <rect width="800" height="400" fill="#ecfeff"/>
  <rect x="92" y="78" width="190" height="280" rx="22" fill="#0f172a"/>
  <rect x="106" y="92" width="162" height="230" rx="10" fill="#111827"/>
  <circle cx="187" cy="336" r="12" fill="#334155"/>

  <rect x="330" y="108" width="388" height="120" rx="18" fill="#ffffff" stroke="#e5e7eb" stroke-width="2"/>
  <text x="360" y="148" font-family="Arial, sans-serif" font-size="20" fill="#0f172a" font-weight="bold">Phone dB Accuracy</text>
  <text x="360" y="176" font-family="Arial, sans-serif" font-size="14" fill="#475569" font-weight="600">Hardware • calibration • limitations</text>
  <path d="M360 206h320" stroke="#e5e7eb" stroke-width="2" stroke-linecap="round"/>
  <path d="M360 206h220" stroke="#22c55e" stroke-width="6" stroke-linecap="round"/>
  <circle cx="580" cy="206" r="8" fill="#22c55e"/>

  <path d="M340 292c40-26 86-40 140-40 86 0 156 34 232 34 48 0 92-10 132-28" fill="none" stroke="#06b6d4" stroke-width="6" stroke-linecap="round"/>
  <path d="M340 314c44-20 92-28 142-20 72 12 132 34 214 30 52-2 108-18 148-38" fill="none" stroke="#0284c7" stroke-width="6" stroke-linecap="round" opacity="0.9"/>

  <text x="400" y="380" font-family="Arial, sans-serif" font-size="20" text-anchor="middle" fill="#0ea5e9" font-weight="bold">Are Smartphone Decibel Meters Accurate?</text>
</svg>
