<svg width="800" height="400" xmlns="http://www.w3.org/2000/svg" role="img" aria-label="White noise machines for babies safe volume cover">
  <rect width="800" height="400" fill="#fdf2f8"/>

  <rect x="92" y="190" width="290" height="150" rx="18" fill="#ffffff" stroke="#e5e7eb" stroke-width="2"/>
  <rect x="112" y="210" width="250" height="110" rx="14" fill="#f8fafc" stroke="#e5e7eb" stroke-width="2"/>
  <path d="M112 248h250" stroke="#cbd5e1" stroke-width="2"/>
  <path d="M112 286h250" stroke="#cbd5e1" stroke-width="2"/>
  <circle cx="145" cy="235" r="10" fill="#fb7185"/>
  <circle cx="170" cy="235" r="10" fill="#fda4af"/>
  <circle cx="195" cy="235" r="10" fill="#fecdd3"/>

  <rect x="470" y="130" width="220" height="220" rx="24" fill="#0f172a"/>
  <circle cx="580" cy="240" r="62" fill="#111827" stroke="#334155" stroke-width="6"/>
  <circle cx="580" cy="240" r="10" fill="#fb7185"/>
  <path d="M710 208c22 18 22 46 0 64" fill="none" stroke="#fb7185" stroke-width="6" stroke-linecap="round"/>
  <path d="M732 192c34 30 34 66 0 96" fill="none" stroke="#fda4af" stroke-width="6" stroke-linecap="round"/>

  <rect x="92" y="70" width="598" height="92" rx="18" fill="#ffffff" stroke="#e5e7eb" stroke-width="2"/>
  <text x="122" y="110" font-family="Arial, sans-serif" font-size="20" fill="#0f172a" font-weight="bold">White Noise for Babies</text>
  <text x="122" y="138" font-family="Arial, sans-serif" font-size="14" fill="#475569" font-weight="600">Safe volume targets • crib-level measurement • placement</text>

  <text x="400" y="382" font-family="Arial, sans-serif" font-size="22" text-anchor="middle" fill="#db2777" font-weight="bold">Safe Volume Levels &amp; Placement</text>
</svg>
